<?xml version="1.0" encoding="utf-8"?>
<!-- Generator: Adobe Illustrator 20.1.0, SVG Export Plug-In . SVG Version: 6.00 Build 0)  -->
<!DOCTYPE svg PUBLIC "-//W3C//DTD SVG 1.1//EN" "http://www.w3.org/Graphics/SVG/1.1/DTD/svg11.dtd">
<svg version="1.1" id="Layer_1" xmlns="http://www.w3.org/2000/svg" xmlns:xlink="http://www.w3.org/1999/xlink" x="0px" y="0px"
	 viewBox="0 0 88.7 27.4" style="enable-background:new 0 0 88.7 27.4;" xml:space="preserve">
<style type="text/css">
	.st0{fill:#E24C2C;}
	.st1{fill:#303030;}
	.st2{fill:#00A6C1;}
</style>
<title>logo</title>
<path class="st0" d="M87.2,5.9c-0.6,0-1.2,0-1.8,0.1c-0.6,0.1-1.2,0.4-1.7,0.6c-0.3,0.1-0.5,0.3-0.8,0.5c-0.3,0.2-0.4,0.3-0.5,0.3
	V5.9h-5.9V9h2.6v3.6l1.7-1.6l1.7,1.6c0-0.5,0.1-1,0.3-1.5c0.2-0.4,0.5-0.8,0.8-1.1c0.4-0.4,0.9-0.6,1.4-0.8C85.7,9.1,86.4,9,87.2,9
	h1.5V6L87.2,5.9z"/>
<polygon class="st1" points="82.4,15.4 80.7,13.8 79.1,15.3 79.1,19.1 79.1,21.3 85.2,21.3 85.2,18.2 82.4,18.2 "/>
<g>
	<path class="st2" d="M11.9,21.3V20c-0.2,0.1-0.3,0.3-0.5,0.4c-0.2,0.1-0.4,0.2-0.6,0.3c-1,0.5-2.1,0.7-3.2,0.7
		c-2.1,0.1-4-0.8-5.4-2.3C0.7,17.7,0,15.7,0,13.6c-0.1-2.1,0.7-4.2,2.1-5.8c1.4-1.5,3.4-2.4,5.4-2.3c1.1,0,2.3,0.3,3.3,0.8
		c0.4,0.2,0.8,0.5,1.1,0.8V0h3.3v18.2h2.5v3.1L11.9,21.3z M10.7,10C9.2,8.3,6.6,8.1,4.9,9.6C4.8,9.7,4.6,9.9,4.5,10
		c-0.9,1-1.3,2.3-1.3,3.6c0,1.3,0.4,2.5,1.3,3.4c0.8,0.9,1.9,1.4,3.1,1.4c1.2,0,2.3-0.5,3.1-1.4c0.8-1,1.3-2.2,1.3-3.5
		C12,12.2,11.5,11,10.7,10z"/>
	<path class="st2" d="M56.3,19.3c-2.9,3-7.7,3.1-10.8,0.2c-0.1-0.1-0.2-0.2-0.2-0.2c-1.4-1.6-2.2-3.6-2.2-5.7c0-2.1,0.7-4.2,2.2-5.7
		c2.9-3,7.7-3.1,10.8-0.2c0.1,0.1,0.2,0.2,0.2,0.2c1.4,1.6,2.2,3.6,2.2,5.7C58.6,15.7,57.8,17.8,56.3,19.3z M53.9,10.1
		c-1.6-1.7-4.3-1.8-6-0.2c-0.1,0.1-0.1,0.1-0.2,0.2c-0.8,1-1.3,2.3-1.2,3.6c-0.1,1.3,0.4,2.6,1.2,3.5c1.6,1.7,4.3,1.8,6,0.2
		c0.1-0.1,0.1-0.1,0.2-0.2c0.8-1,1.3-2.3,1.2-3.5C55.2,12.3,54.8,11,53.9,10.1L53.9,10.1z"/>
	<path class="st2" d="M73.1,9l-6.9,18.4h-3.2l2.6-7.4L61,9h-2.5V5.9h4.8L64,7.8l3.2,7.9L69.7,9H68V5.9h7.5V9H73.1z"/>
	<path class="st2" d="M34.5,10.4c-0.3-1-0.9-1.8-1.6-2.6c-2.2-2.4-5.7-3-8.6-1.5c-0.2,0.1-0.4,0.2-0.6,0.3c-0.2,0.1-0.4,0.3-0.6,0.4
		V5.9h-5.6V9h2.3v18.4h4.3l1.5-1.5l0,0l-1.5-1.5h-1v-4c0.2,0.1,0.3,0.3,0.5,0.4c0.2,0.1,0.4,0.2,0.6,0.3c1,0.5,2.1,0.7,3.2,0.8
		c2.1,0.1,4.1-0.8,5.5-2.3c1.4-1.6,2.1-3.7,2.1-5.9C35,12.5,34.9,11.4,34.5,10.4z M31.5,15.6c-0.2,0.6-0.5,1.1-0.9,1.6
		c-0.8,0.9-1.9,1.4-3.1,1.3c-1.2,0-2.3-0.5-3.1-1.4c-0.4-0.5-0.7-1-0.9-1.5c-0.2-0.7-0.3-1.4-0.3-2.1C23,12.2,23.5,11,24.3,10
		c1.7-1.7,4.4-1.8,6.1-0.1c0,0,0.1,0.1,0.1,0.1c0.9,1,1.3,2.3,1.3,3.6C31.8,14.3,31.7,15,31.5,15.6L31.5,15.6z"/>
	<polygon class="st2" points="40.3,18.2 40.3,0 36.1,0 34.6,1.6 36,3.1 37,3.1 37,19.1 37,21.3 42.7,21.3 42.7,18.2 	"/>
</g>
</svg>
